<mxfile host="app.diagrams.net" modified="2023-01-24T12:22:22.578Z" agent="5.0 (Windows NT 10.0; Win64; x64) AppleWebKit/537.36 (KHTML, like Gecko) Chrome/109.0.0.0 Safari/537.36" etag="Ee2j50yGV6f46kuVOP7H" version="20.8.10" type="github">
  <diagram id="C5RBs43oDa-KdzZeNtuy" name="Page-1">
    <mxGraphModel dx="718" dy="392" grid="1" gridSize="10" guides="1" tooltips="1" connect="1" arrows="1" fold="1" page="1" pageScale="1" pageWidth="827" pageHeight="1169" math="0" shadow="0">
      <root>
        <mxCell id="WIyWlLk6GJQsqaUBKTNV-0" />
        <mxCell id="WIyWlLk6GJQsqaUBKTNV-1" parent="WIyWlLk6GJQsqaUBKTNV-0" />
        <mxCell id="KEIJj6NctLZswVazRSVO-2" value="" style="edgeStyle=orthogonalEdgeStyle;rounded=0;orthogonalLoop=1;jettySize=auto;html=1;" edge="1" parent="WIyWlLk6GJQsqaUBKTNV-1" source="KEIJj6NctLZswVazRSVO-0" target="KEIJj6NctLZswVazRSVO-1">
          <mxGeometry relative="1" as="geometry" />
        </mxCell>
        <mxCell id="KEIJj6NctLZswVazRSVO-0" value="Start" style="ellipse;whiteSpace=wrap;html=1;" vertex="1" parent="WIyWlLk6GJQsqaUBKTNV-1">
          <mxGeometry x="40" y="40" width="120" height="80" as="geometry" />
        </mxCell>
        <mxCell id="KEIJj6NctLZswVazRSVO-6" value="" style="edgeStyle=orthogonalEdgeStyle;rounded=0;orthogonalLoop=1;jettySize=auto;html=1;" edge="1" parent="WIyWlLk6GJQsqaUBKTNV-1" source="KEIJj6NctLZswVazRSVO-1" target="KEIJj6NctLZswVazRSVO-5">
          <mxGeometry relative="1" as="geometry" />
        </mxCell>
        <mxCell id="KEIJj6NctLZswVazRSVO-1" value="num1=0&lt;br&gt;num2=0&lt;br&gt;sum=0&lt;br&gt;ave=0" style="shape=hexagon;perimeter=hexagonPerimeter2;whiteSpace=wrap;html=1;fixedSize=1;" vertex="1" parent="WIyWlLk6GJQsqaUBKTNV-1">
          <mxGeometry x="40" y="150" width="120" height="80" as="geometry" />
        </mxCell>
        <mxCell id="KEIJj6NctLZswVazRSVO-10" value="" style="edgeStyle=orthogonalEdgeStyle;rounded=0;orthogonalLoop=1;jettySize=auto;html=1;" edge="1" parent="WIyWlLk6GJQsqaUBKTNV-1" source="KEIJj6NctLZswVazRSVO-5" target="KEIJj6NctLZswVazRSVO-9">
          <mxGeometry relative="1" as="geometry" />
        </mxCell>
        <mxCell id="KEIJj6NctLZswVazRSVO-5" value="input num1, num2" style="shape=parallelogram;perimeter=parallelogramPerimeter;whiteSpace=wrap;html=1;fixedSize=1;" vertex="1" parent="WIyWlLk6GJQsqaUBKTNV-1">
          <mxGeometry x="40" y="250" width="120" height="60" as="geometry" />
        </mxCell>
        <mxCell id="KEIJj6NctLZswVazRSVO-12" value="" style="edgeStyle=orthogonalEdgeStyle;rounded=0;orthogonalLoop=1;jettySize=auto;html=1;" edge="1" parent="WIyWlLk6GJQsqaUBKTNV-1" source="KEIJj6NctLZswVazRSVO-9" target="KEIJj6NctLZswVazRSVO-11">
          <mxGeometry relative="1" as="geometry" />
        </mxCell>
        <mxCell id="KEIJj6NctLZswVazRSVO-9" value="ave = (num1+num2)/2" style="whiteSpace=wrap;html=1;" vertex="1" parent="WIyWlLk6GJQsqaUBKTNV-1">
          <mxGeometry x="40" y="340" width="120" height="60" as="geometry" />
        </mxCell>
        <mxCell id="KEIJj6NctLZswVazRSVO-14" value="" style="edgeStyle=orthogonalEdgeStyle;rounded=0;orthogonalLoop=1;jettySize=auto;html=1;" edge="1" parent="WIyWlLk6GJQsqaUBKTNV-1" source="KEIJj6NctLZswVazRSVO-11" target="KEIJj6NctLZswVazRSVO-13">
          <mxGeometry relative="1" as="geometry" />
        </mxCell>
        <mxCell id="KEIJj6NctLZswVazRSVO-11" value="output&lt;br&gt;ave" style="shape=parallelogram;perimeter=parallelogramPerimeter;whiteSpace=wrap;html=1;fixedSize=1;" vertex="1" parent="WIyWlLk6GJQsqaUBKTNV-1">
          <mxGeometry x="40" y="430" width="120" height="60" as="geometry" />
        </mxCell>
        <mxCell id="KEIJj6NctLZswVazRSVO-13" value="end" style="ellipse;whiteSpace=wrap;html=1;" vertex="1" parent="WIyWlLk6GJQsqaUBKTNV-1">
          <mxGeometry x="60" y="520" width="80" height="80" as="geometry" />
        </mxCell>
        <mxCell id="KEIJj6NctLZswVazRSVO-15" value="Flowchart: Getting the Average of two numbers" style="text;html=1;strokeColor=none;fillColor=none;align=center;verticalAlign=middle;whiteSpace=wrap;rounded=0;" vertex="1" parent="WIyWlLk6GJQsqaUBKTNV-1">
          <mxGeometry x="17.5" width="165" height="30" as="geometry" />
        </mxCell>
      </root>
    </mxGraphModel>
  </diagram>
</mxfile>
